<svg viewBox="0 0 1000 300" xmlns="http://www.w3.org/2000/svg">
    <rect x="0" y="0" width="100%" height="100%" fill="whitesmoke"/>
    <text x="25%" y="55%" dominant-baseline="middle" text-anchor="middle"
          font-size="55" fill="black" font-weight="600"
          font-family="-apple-system,BlinkMacSystemFont,'Segoe UI',Helvetica,Arial,sans-serif,'Apple Color Emoji','Segoe UI Emoji'">
        Fast
    </text>
    <svg viewBox="0 0 37 37" xmlns="http://www.w3.org/2000/svg" fill-opacity="0">
        <rect width="37px" height="37px"/>
        <path d="M4,4h1v1h-1M5,4h1v1h-1M6,4h1v1h-1M7,4h1v1h-1M8,4h1v1h-1M9,4h1v1h-1M10,4h1v1h-1M12,4h1v1h-1M13,4h1v1h-1M16,4h1v1h-1M19,4h1v1h-1M22,4h1v1h-1M24,4h1v1h-1M26,4h1v1h-1M27,4h1v1h-1M28,4h1v1h-1M29,4h1v1h-1M30,4h1v1h-1M31,4h1v1h-1M32,4h1v1h-1M4,5h1v1h-1M10,5h1v1h-1M12,5h1v1h-1M13,5h1v1h-1M17,5h1v1h-1M18,5h1v1h-1M19,5h1v1h-1M21,5h1v1h-1M22,5h1v1h-1M23,5h1v1h-1M26,5h1v1h-1M32,5h1v1h-1M4,6h1v1h-1M6,6h1v1h-1M7,6h1v1h-1M8,6h1v1h-1M10,6h1v1h-1M12,6h1v1h-1M14,6h1v1h-1M16,6h1v1h-1M17,6h1v1h-1M23,6h1v1h-1M24,6h1v1h-1M26,6h1v1h-1M28,6h1v1h-1M29,6h1v1h-1M30,6h1v1h-1M32,6h1v1h-1M4,7h1v1h-1M6,7h1v1h-1M7,7h1v1h-1M8,7h1v1h-1M10,7h1v1h-1M15,7h1v1h-1M16,7h1v1h-1M19,7h1v1h-1M20,7h1v1h-1M21,7h1v1h-1M23,7h1v1h-1M24,7h1v1h-1M26,7h1v1h-1M28,7h1v1h-1M29,7h1v1h-1M30,7h1v1h-1M32,7h1v1h-1M4,8h1v1h-1M6,8h1v1h-1M7,8h1v1h-1M8,8h1v1h-1M10,8h1v1h-1M15,8h1v1h-1M17,8h1v1h-1M20,8h1v1h-1M23,8h1v1h-1M24,8h1v1h-1M26,8h1v1h-1M28,8h1v1h-1M29,8h1v1h-1M30,8h1v1h-1M32,8h1v1h-1M4,9h1v1h-1M10,9h1v1h-1M12,9h1v1h-1M13,9h1v1h-1M14,9h1v1h-1M15,9h1v1h-1M17,9h1v1h-1M18,9h1v1h-1M20,9h1v1h-1M22,9h1v1h-1M24,9h1v1h-1M26,9h1v1h-1M32,9h1v1h-1M4,10h1v1h-1M5,10h1v1h-1M6,10h1v1h-1M7,10h1v1h-1M8,10h1v1h-1M9,10h1v1h-1M10,10h1v1h-1M12,10h1v1h-1M14,10h1v1h-1M16,10h1v1h-1M18,10h1v1h-1M20,10h1v1h-1M22,10h1v1h-1M24,10h1v1h-1M26,10h1v1h-1M27,10h1v1h-1M28,10h1v1h-1M29,10h1v1h-1M30,10h1v1h-1M31,10h1v1h-1M32,10h1v1h-1M12,11h1v1h-1M13,11h1v1h-1M14,11h1v1h-1M17,11h1v1h-1M20,11h1v1h-1M6,12h1v1h-1M7,12h1v1h-1M8,12h1v1h-1M10,12h1v1h-1M12,12h1v1h-1M14,12h1v1h-1M15,12h1v1h-1M16,12h1v1h-1M18,12h1v1h-1M22,12h1v1h-1M24,12h1v1h-1M25,12h1v1h-1M26,12h1v1h-1M27,12h1v1h-1M30,12h1v1h-1M31,12h1v1h-1M32,12h1v1h-1M4,13h1v1h-1M5,13h1v1h-1M6,13h1v1h-1M9,13h1v1h-1M11,13h1v1h-1M18,13h1v1h-1M19,13h1v1h-1M20,13h1v1h-1M25,13h1v1h-1M26,13h1v1h-1M27,13h1v1h-1M28,13h1v1h-1M32,13h1v1h-1M5,14h1v1h-1M8,14h1v1h-1M10,14h1v1h-1M12,14h1v1h-1M14,14h1v1h-1M16,14h1v1h-1M17,14h1v1h-1M21,14h1v1h-1M22,14h1v1h-1M24,14h1v1h-1M25,14h1v1h-1M26,14h1v1h-1M27,14h1v1h-1M29,14h1v1h-1M8,15h1v1h-1M13,15h1v1h-1M14,15h1v1h-1M15,15h1v1h-1M16,15h1v1h-1M20,15h1v1h-1M21,15h1v1h-1M25,15h1v1h-1M26,15h1v1h-1M27,15h1v1h-1M29,15h1v1h-1M31,15h1v1h-1M4,16h1v1h-1M6,16h1v1h-1M7,16h1v1h-1M10,16h1v1h-1M11,16h1v1h-1M17,16h1v1h-1M18,16h1v1h-1M19,16h1v1h-1M21,16h1v1h-1M22,16h1v1h-1M25,16h1v1h-1M27,16h1v1h-1M29,16h1v1h-1M30,16h1v1h-1M31,16h1v1h-1M32,16h1v1h-1M4,17h1v1h-1M6,17h1v1h-1M17,17h1v1h-1M19,17h1v1h-1M20,17h1v1h-1M21,17h1v1h-1M22,17h1v1h-1M23,17h1v1h-1M24,17h1v1h-1M25,17h1v1h-1M26,17h1v1h-1M28,17h1v1h-1M29,17h1v1h-1M32,17h1v1h-1M4,18h1v1h-1M5,18h1v1h-1M10,18h1v1h-1M11,18h1v1h-1M12,18h1v1h-1M19,18h1v1h-1M21,18h1v1h-1M26,18h1v1h-1M27,18h1v1h-1M7,19h1v1h-1M12,19h1v1h-1M13,19h1v1h-1M15,19h1v1h-1M18,19h1v1h-1M22,19h1v1h-1M23,19h1v1h-1M24,19h1v1h-1M28,19h1v1h-1M29,19h1v1h-1M6,20h1v1h-1M8,20h1v1h-1M10,20h1v1h-1M11,20h1v1h-1M14,20h1v1h-1M16,20h1v1h-1M18,20h1v1h-1M19,20h1v1h-1M22,20h1v1h-1M25,20h1v1h-1M29,20h1v1h-1M30,20h1v1h-1M32,20h1v1h-1M4,21h1v1h-1M5,21h1v1h-1M6,21h1v1h-1M11,21h1v1h-1M13,21h1v1h-1M14,21h1v1h-1M18,21h1v1h-1M19,21h1v1h-1M20,21h1v1h-1M21,21h1v1h-1M24,21h1v1h-1M25,21h1v1h-1M26,21h1v1h-1M27,21h1v1h-1M28,21h1v1h-1M31,21h1v1h-1M32,21h1v1h-1M4,22h1v1h-1M7,22h1v1h-1M10,22h1v1h-1M14,22h1v1h-1M15,22h1v1h-1M19,22h1v1h-1M20,22h1v1h-1M21,22h1v1h-1M22,22h1v1h-1M23,22h1v1h-1M26,22h1v1h-1M27,22h1v1h-1M30,22h1v1h-1M4,23h1v1h-1M7,23h1v1h-1M9,23h1v1h-1M12,23h1v1h-1M13,23h1v1h-1M14,23h1v1h-1M15,23h1v1h-1M17,23h1v1h-1M18,23h1v1h-1M19,23h1v1h-1M22,23h1v1h-1M23,23h1v1h-1M24,23h1v1h-1M26,23h1v1h-1M28,23h1v1h-1M31,23h1v1h-1M4,24h1v1h-1M7,24h1v1h-1M10,24h1v1h-1M14,24h1v1h-1M15,24h1v1h-1M17,24h1v1h-1M20,24h1v1h-1M21,24h1v1h-1M23,24h1v1h-1M24,24h1v1h-1M25,24h1v1h-1M26,24h1v1h-1M27,24h1v1h-1M28,24h1v1h-1M30,24h1v1h-1M12,25h1v1h-1M13,25h1v1h-1M17,25h1v1h-1M19,25h1v1h-1M21,25h1v1h-1M22,25h1v1h-1M24,25h1v1h-1M28,25h1v1h-1M29,25h1v1h-1M31,25h1v1h-1M32,25h1v1h-1M4,26h1v1h-1M5,26h1v1h-1M6,26h1v1h-1M7,26h1v1h-1M8,26h1v1h-1M9,26h1v1h-1M10,26h1v1h-1M15,26h1v1h-1M16,26h1v1h-1M20,26h1v1h-1M21,26h1v1h-1M22,26h1v1h-1M23,26h1v1h-1M24,26h1v1h-1M26,26h1v1h-1M28,26h1v1h-1M31,26h1v1h-1M4,27h1v1h-1M10,27h1v1h-1M15,27h1v1h-1M16,27h1v1h-1M17,27h1v1h-1M18,27h1v1h-1M19,27h1v1h-1M22,27h1v1h-1M23,27h1v1h-1M24,27h1v1h-1M28,27h1v1h-1M29,27h1v1h-1M31,27h1v1h-1M4,28h1v1h-1M6,28h1v1h-1M7,28h1v1h-1M8,28h1v1h-1M10,28h1v1h-1M12,28h1v1h-1M13,28h1v1h-1M15,28h1v1h-1M16,28h1v1h-1M17,28h1v1h-1M18,28h1v1h-1M19,28h1v1h-1M21,28h1v1h-1M22,28h1v1h-1M24,28h1v1h-1M25,28h1v1h-1M26,28h1v1h-1M27,28h1v1h-1M28,28h1v1h-1M29,28h1v1h-1M30,28h1v1h-1M4,29h1v1h-1M6,29h1v1h-1M7,29h1v1h-1M8,29h1v1h-1M10,29h1v1h-1M12,29h1v1h-1M14,29h1v1h-1M18,29h1v1h-1M19,29h1v1h-1M20,29h1v1h-1M22,29h1v1h-1M23,29h1v1h-1M24,29h1v1h-1M25,29h1v1h-1M27,29h1v1h-1M29,29h1v1h-1M30,29h1v1h-1M4,30h1v1h-1M6,30h1v1h-1M7,30h1v1h-1M8,30h1v1h-1M10,30h1v1h-1M12,30h1v1h-1M13,30h1v1h-1M14,30h1v1h-1M19,30h1v1h-1M20,30h1v1h-1M22,30h1v1h-1M23,30h1v1h-1M24,30h1v1h-1M25,30h1v1h-1M26,30h1v1h-1M27,30h1v1h-1M28,30h1v1h-1M30,30h1v1h-1M31,30h1v1h-1M4,31h1v1h-1M10,31h1v1h-1M14,31h1v1h-1M15,31h1v1h-1M16,31h1v1h-1M17,31h1v1h-1M18,31h1v1h-1M21,31h1v1h-1M26,31h1v1h-1M28,31h1v1h-1M29,31h1v1h-1M31,31h1v1h-1M4,32h1v1h-1M5,32h1v1h-1M6,32h1v1h-1M7,32h1v1h-1M8,32h1v1h-1M9,32h1v1h-1M10,32h1v1h-1M14,32h1v1h-1M15,32h1v1h-1M18,32h1v1h-1M19,32h1v1h-1M20,32h1v1h-1M21,32h1v1h-1M22,32h1v1h-1M26,32h1v1h-1M28,32h1v1h-1M30,32h1v1h-1"
              fill="#000000" fill-opacity="1"/>
    </svg>
    <text x="75%" y="55%" dominant-baseline="middle" text-anchor="middle" font-size="55" fill="black"
          font-weight="600"
          font-family="-apple-system,BlinkMacSystemFont,'Segoe UI',Helvetica,Arial,sans-serif,'Apple Color Emoji','Segoe UI Emoji'">
        QR
    </text>
    <text x="91%" y="92%" dominant-baseline="middle" text-anchor="middle" font-size="25" fill="#868cd0"
          font-weight="600"
          font-family="sans-serif,'Apple Color Emoji','Segoe UI Emoji'">
        fast-qr.com
    </text>
</svg>
